<svg version="1.1" id="Layer_1" xmlns="http://www.w3.org/2000/svg" xmlns:xlink="http://www.w3.org/1999/xlink" x="0px" y="0px"
	 width="100%" viewBox="0 0 512 512" enable-background="new 0 0 512 512" xml:space="preserve">
<path fill="#000000" opacity="1.000000" stroke="none" 
	d="
M298.000000,513.000000 
	C198.690781,513.000000 99.881554,513.000000 1.036167,513.000000 
	C1.036167,342.399078 1.036167,171.798172 1.036167,1.098622 
	C171.559235,1.098622 342.118561,1.098622 512.838928,1.098622 
	C512.838928,171.666550 512.838928,342.333252 512.838928,513.000000 
	C441.464813,513.000000 369.982391,513.000000 298.000000,513.000000 
M256.965149,155.023331 
	C292.581879,157.755142 321.723541,171.945129 342.355865,203.520721 
	C324.562958,221.296036 306.841400,239.000046 288.722809,257.100708 
	C348.108917,257.100708 407.286926,257.100708 466.533600,257.100708 
	C466.533600,197.963531 466.533600,138.382339 466.533600,78.801163 
	C466.059570,78.481667 465.585510,78.162163 465.111481,77.842659 
	C449.910431,93.136276 434.709412,108.429893 419.447540,123.784729 
	C418.929657,123.301834 418.307770,122.753136 417.720428,122.169693 
	C408.081879,112.595085 399.165375,102.129578 388.660858,93.625473 
	C367.783539,76.723900 344.309387,64.281517 318.372406,56.628586 
	C297.963074,50.606628 277.290588,47.090443 255.029785,48.020267 
	C195.863922,48.020267 136.698059,48.020267 77.532204,48.020267 
	C77.246262,48.526905 76.960312,49.033543 76.674362,49.540180 
	C92.068565,64.843491 107.462761,80.146812 122.357704,94.953819 
	C112.442734,105.264259 101.633255,114.946793 92.701363,126.129051 
	C75.958969,147.089630 63.361038,170.441956 55.742519,196.418503 
	C49.843285,216.532867 46.164520,236.828659 47.022861,258.791656 
	C47.022861,318.010986 47.022861,377.230286 47.022861,436.449615 
	C47.434868,436.673126 47.846874,436.896667 48.258881,437.120178 
	C63.593571,421.755066 78.928261,406.389954 94.253410,391.034393 
	C138.411316,441.427124 193.451538,468.179260 260.861053,466.893799 
	C328.454865,465.604828 382.270996,436.468811 424.513428,384.132263 
	C398.489105,357.634735 372.899872,331.580231 346.971161,305.180084 
	C334.182922,326.597748 317.423645,342.556030 295.265503,352.190918 
	C272.712219,361.997559 249.624130,361.345306 226.538300,353.978424 
	C203.475464,346.618866 185.536423,332.512756 171.092758,310.606445 
	C188.974518,292.736786 206.993774,274.729706 224.730545,257.004944 
	C223.833542,257.004944 222.041412,256.985748 220.249802,257.007874 
	C198.167160,257.280426 176.084595,257.559082 154.000244,256.996582 
	C157.178146,221.866577 171.237671,192.942871 202.437897,172.691666 
	C220.213608,190.477173 238.021286,208.294647 256.108795,226.392120 
	C256.108795,202.576324 256.108795,178.831329 256.965149,155.023331 
z"/>
<path fill="#ABABAB" opacity="1.000000" stroke="none" 
	d="
M154.001999,257.836151 
	C176.084595,257.559082 198.167160,257.280426 220.249802,257.007874 
	C222.041412,256.985748 223.833542,257.004944 224.730545,257.004944 
	C206.993774,274.729706 188.974518,292.736786 171.092758,310.606445 
	C185.536423,332.512756 203.475464,346.618866 226.538300,353.978424 
	C249.624130,361.345306 272.712219,361.997559 295.265503,352.190918 
	C317.423645,342.556030 334.182922,326.597748 346.971161,305.180084 
	C372.899872,331.580231 398.489105,357.634735 424.513428,384.132263 
	C382.270996,436.468811 328.454865,465.604828 260.861053,466.893799 
	C193.451538,468.179260 138.411316,441.427124 94.253410,391.034393 
	C78.928261,406.389954 63.593571,421.755066 48.258881,437.120178 
	C47.846874,436.896667 47.434868,436.673126 47.022861,436.449615 
	C47.022861,377.230286 47.022861,318.010986 47.552765,258.325226 
	C83.389107,257.851257 118.695557,257.843689 154.001999,257.836151 
z"/>
<path fill="#1C3AA9" opacity="1.000000" stroke="none" 
	d="
M255.957336,48.139900 
	C277.290588,47.090443 297.963074,50.606628 318.372406,56.628586 
	C344.309387,64.281517 367.783539,76.723900 388.660858,93.625473 
	C399.165375,102.129578 408.081879,112.595085 417.720428,122.169693 
	C418.307770,122.753136 418.929657,123.301834 419.447540,123.784729 
	C434.709412,108.429893 449.910431,93.136276 465.111481,77.842659 
	C465.585510,78.162163 466.059570,78.481667 466.533600,78.801163 
	C466.533600,138.382339 466.533600,197.963531 466.533600,257.100708 
	C407.286926,257.100708 348.108917,257.100708 288.722809,257.100708 
	C306.841400,239.000046 324.562958,221.296036 342.355865,203.520721 
	C321.723541,171.945129 292.581879,157.755142 256.488708,154.583771 
	C255.993958,118.809448 255.975647,83.474678 255.957336,48.139900 
z"/>
<path fill="#4285F4" opacity="1.000000" stroke="none" 
	d="
M255.493561,48.080086 
	C255.975647,83.474678 255.993958,118.809448 256.060547,154.615280 
	C256.108795,178.831329 256.108795,202.576324 256.108795,226.392120 
	C238.021286,208.294647 220.213608,190.477173 202.437897,172.691666 
	C171.237671,192.942871 157.178146,221.866577 154.001129,257.416382 
	C118.695557,257.843689 83.389107,257.851257 47.624691,257.851593 
	C46.164520,236.828659 49.843285,216.532867 55.742519,196.418503 
	C63.361038,170.441956 75.958969,147.089630 92.701363,126.129051 
	C101.633255,114.946793 112.442734,105.264259 122.357704,94.953819 
	C107.462761,80.146812 92.068565,64.843491 76.674362,49.540180 
	C76.960312,49.033543 77.246262,48.526905 77.532204,48.020267 
	C136.698059,48.020267 195.863922,48.020267 255.493561,48.080086 
z"/>
</svg>