<?xml version="1.0" encoding="UTF-8"?>
<svg version="1.1" xmlns="http://www.w3.org/2000/svg" width="512" height="512">
<path d="M0 0 C25.71405586 -0.07030838 51.42809716 -0.1230946 77.14223003 -0.15543652 C89.08370377 -0.17085744 101.02511752 -0.19185489 112.96655273 -0.22631836 C123.38355246 -0.25636773 133.80050871 -0.27560963 144.21755058 -0.28226548 C149.72524994 -0.2861516 155.232825 -0.29518313 160.74048424 -0.31719017 C165.94185168 -0.33780174 171.14304558 -0.34378486 176.34445 -0.33932304 C178.23684386 -0.34013736 180.12924453 -0.34595417 182.02160263 -0.35761642 C235.68595495 -0.6716571 287.60120586 20.53020894 326 58 C326.60714844 58.59200195 327.21429688 59.18400391 327.83984375 59.79394531 C329.7750306 61.68922136 331.70229475 63.59206586 333.625 65.5 C334.53209717 66.39984619 334.53209717 66.39984619 335.45751953 67.31787109 C336.3022583 68.16599365 336.3022583 68.16599365 337.1640625 69.03125 C337.66373535 69.53205078 338.1634082 70.03285156 338.67822266 70.54882812 C340 72 340 72 342 75 C345.48916423 73.50579408 347.72491256 71.51265384 350.38549805 68.82568359 C351.24286057 67.96494232 352.10022308 67.10420105 352.98356628 66.21737671 C353.9003566 65.28712677 354.81714691 64.35687683 355.76171875 63.3984375 C356.71716593 62.43671754 357.67313167 61.47551249 358.6295929 60.51480103 C361.14052471 57.99059193 363.64581903 55.46086758 366.14953613 52.92950439 C370.16642818 48.86941139 374.19015266 44.81611586 378.21705055 40.76594925 C379.62483961 39.34790319 381.02907311 37.92633018 382.43327332 36.50473022 C383.28117935 35.65029327 384.12908539 34.79585632 385.00268555 33.91552734 C385.7522905 33.15766937 386.50189545 32.3998114 387.2742157 31.61898804 C389 30 389 30 390 30 C390 89.4 390 148.8 390 210 C301.395 209.505 301.395 209.505 211 209 C214.62966413 204.76539185 218.08059665 200.79529686 221.99560547 196.89086914 C222.45489944 196.43142914 222.91419342 195.97198914 223.3874054 195.49862671 C224.8783035 194.00841502 226.37269135 192.52175872 227.8671875 191.03515625 C228.91258325 189.99162921 229.95775575 188.94787848 231.00271606 187.90391541 C233.7327284 185.17769255 236.46573193 182.45448819 239.19940186 179.73193359 C241.99675154 176.94487541 244.79121701 174.15492854 247.5859375 171.36523438 C253.05449694 165.90734919 258.52622445 160.45265441 264 155 C263.04583947 153.55562953 262.08993725 152.11240953 261.13330078 150.66967773 C260.60116974 149.86586166 260.0690387 149.06204559 259.52078247 148.23387146 C245.25746382 127.28253813 222.21420537 115.22267175 198 110 C191.73 109.01 185.46 108.02 179 107 C179 130.76 179 154.52 179 179 C174.76539185 175.37033587 170.79529686 171.91940335 166.89086914 168.00439453 C166.43142914 167.54510056 165.97198914 167.08580658 165.49862671 166.6125946 C164.00841502 165.1216965 162.52175872 163.62730865 161.03515625 162.1328125 C159.99162921 161.08741675 158.94787848 160.04224425 157.90391541 158.99728394 C155.17769255 156.2672716 152.45448819 153.53426807 149.73193359 150.80059814 C146.94487541 148.00324846 144.15492854 145.20878299 141.36523438 142.4140625 C135.90734919 136.94550306 130.45265441 131.47377555 125 126 C123.55562953 126.95416053 122.11240953 127.91006275 120.66967773 128.86669922 C119.86586166 129.39883026 119.06204559 129.9309613 118.23387146 130.47921753 C97.48538669 144.60444026 84.89505194 167.85660824 80 192 C78.91067605 197.9855079 77.94160832 203.98973414 77 210 C77.85099274 209.83734146 78.70198547 209.67468292 79.57876587 209.50709534 C83.02629326 208.99610281 86.2563891 208.87980151 89.73974609 208.88647461 C90.38435791 208.88632858 91.02896973 208.88618256 91.69311523 208.8860321 C93.80325805 208.88672339 95.91331029 208.89447867 98.0234375 208.90234375 C99.4945979 208.90421072 100.96575892 208.90563331 102.43692017 208.90663147 C106.29365785 208.91043467 110.15035738 208.92024602 114.00708008 208.93133545 C117.94872522 208.94159698 121.89037658 208.94613922 125.83203125 208.95117188 C133.55470482 208.96187041 141.27734705 208.97892023 149 209 C147.42122567 212.8239492 145.00498287 215.23642099 142.09130859 218.13574219 C141.59358444 218.63375839 141.09586029 219.1317746 140.58305359 219.6448822 C138.9428793 221.28366733 137.29574339 222.91526134 135.6484375 224.546875 C134.50742744 225.68415347 133.36685923 226.8218754 132.22671509 227.96002197 C129.22921238 230.94989979 126.22575149 233.93372191 123.2210083 236.9163208 C120.15413288 239.96271321 117.09293306 243.01479703 114.03125 246.06640625 C108.02637217 252.04985434 102.01518768 258.02691663 96 264 C96.94695079 265.43617982 97.89601 266.87096957 98.84594727 268.30517578 C99.37422623 269.10432404 99.90250519 269.90347229 100.4467926 270.72683716 C113.92812972 290.45715433 136.0320869 302.8796078 159 308 C159.68143066 308.15339844 160.36286133 308.30679687 161.06494141 308.46484375 C185.90963385 313.86804804 211.35199285 309.68829421 233 296 C247.98639375 285.67103188 259.50004873 273.50443514 269 258 C272.47403552 259.49196533 274.72076139 261.47279606 277.38208008 264.13916016 C278.2400972 264.99410065 279.09811432 265.84904114 279.98213196 266.72988892 C281.36189461 268.12042984 281.36189461 268.12042984 282.76953125 269.5390625 C283.73317015 270.50389517 284.69718084 271.46835664 285.6615448 272.4324646 C287.68283325 274.45531615 289.70072385 276.48147684 291.71606445 278.51025391 C294.27950977 281.09058594 296.84938415 283.66439059 299.42166615 286.23591042 C301.41501352 288.22953209 303.40572562 290.22576822 305.39560509 292.2228508 C306.79643773 293.6283504 308.19871453 295.03241018 309.60102844 296.43643188 C314.04143995 300.90950049 318.33551433 305.44058962 322.44367981 310.2203064 C324.75986523 312.86892613 327.2194443 315.33119886 329.71484375 317.8125 C330.21544815 318.31168945 330.71605255 318.81087891 331.23182678 319.32519531 C332.79800764 320.8858737 334.36766471 322.44299847 335.9375 324 C337.01390654 325.07137887 338.09008014 326.14299182 339.16601562 327.21484375 C341.77466745 329.81259638 344.38644471 332.40717962 347 335 C345.80335681 338.33370881 344.62743801 340.75099771 342.171875 343.3046875 C341.61886719 343.88863281 341.06585938 344.47257812 340.49609375 345.07421875 C339.91988281 345.66847656 339.34367187 346.26273437 338.75 346.875 C337.61843034 348.05859585 336.48821752 349.24349039 335.359375 350.4296875 C334.8012915 351.01484131 334.24320801 351.59999512 333.66821289 352.20288086 C331.99032081 354.01042712 330.38590324 355.86348971 328.79296875 357.74609375 C325.51399179 361.61094912 321.90584933 364.77554495 318 368 C317.47760742 368.43473633 316.95521484 368.86947266 316.41699219 369.31738281 C295.14780326 386.95203918 272.22148274 400.07869215 246 409 C245.26861816 409.24975586 244.53723633 409.49951172 243.78369141 409.75683594 C191.83614996 427.10878284 133.62758273 421.11074566 84.875 397.1875 C60.23170061 384.7113811 34.7797185 367.33800025 18 345 C18 344.34 18 343.68 18 343 C11.94902788 348.1306781 6.30180123 353.57844577 0.72265625 359.21484375 C-0.12929825 360.07058487 -0.98125275 360.92632599 -1.85902405 361.80799866 C-4.55430293 364.51540568 -7.24629126 367.22604754 -9.9375 369.9375 C-13.50629049 373.53277034 -17.07830384 377.1247927 -20.65234375 380.71484375 C-21.47516342 381.54596176 -22.29798309 382.37707977 -23.14573669 383.23338318 C-23.90064896 383.99159866 -24.65556122 384.74981415 -25.43334961 385.53100586 C-26.09983017 386.20272324 -26.76631073 386.87444061 -27.45298767 387.56651306 C-29 389 -29 389 -30 389 C-30.07031016 363.41632805 -30.12309546 337.83267075 -30.15543652 312.24892139 C-30.17085706 300.36798165 -30.19185378 288.4871022 -30.22631836 276.60620117 C-30.25636889 266.24193916 -30.2756099 255.87772084 -30.28226548 245.51341647 C-30.2861514 240.0336625 -30.29518167 234.55403347 -30.31719017 229.07431984 C-30.33780359 223.89921699 -30.34378451 218.72428857 -30.33932304 213.54914856 C-30.34013728 211.66642999 -30.34595297 209.78370457 -30.35761642 207.90102196 C-30.67309598 154.27138176 -9.44054282 102.36882074 28 64 C28.59200195 63.39285156 29.18400391 62.78570312 29.79394531 62.16015625 C31.68922136 60.2249694 33.59206586 58.29770525 35.5 56.375 C36.09989746 55.77026855 36.69979492 55.16553711 37.31787109 54.54248047 C37.88328613 53.97932129 38.44870117 53.41616211 39.03125 52.8359375 C39.53205078 52.33626465 40.03285156 51.8365918 40.54882812 51.32177734 C42 50 42 50 45 48 C43.50579408 44.51083577 41.51265384 42.27508744 38.82568359 39.61450195 C37.96494232 38.75713943 37.10420105 37.89977692 36.21737671 37.01643372 C35.28712677 36.0996434 34.35687683 35.18285309 33.3984375 34.23828125 C32.43671754 33.28283407 31.47551249 32.32686833 30.51480103 31.3704071 C27.99059193 28.85947529 25.46086758 26.35418097 22.92950439 23.85046387 C18.86941139 19.83357182 14.81611586 15.80984734 10.76594925 11.78294945 C9.34790319 10.37516039 7.92633018 8.97092689 6.50473022 7.56672668 C5.2230748 6.29486763 5.2230748 6.29486763 3.91552734 4.99731445 C3.15766937 4.2477095 2.3998114 3.49810455 1.61898804 2.7257843 C0 1 0 1 0 0 Z " fill="#1C3AA9" transform="translate(76,47)"/>
<path d="M0 0 C0.69248589 0.00085602 1.38497177 0.00171204 2.09844208 0.00259399 C10.04482431 0.01321247 17.99116839 0.03186103 25.9375 0.0625 C24.35872567 3.8864492 21.94248287 6.29892099 19.02880859 9.19824219 C18.53108444 9.69625839 18.03336029 10.1942746 17.52055359 10.7073822 C15.8803793 12.34616733 14.23324339 13.97776134 12.5859375 15.609375 C11.44492744 16.74665347 10.30435923 17.8843754 9.16421509 19.02252197 C6.16671238 22.01239979 3.16325149 24.99622191 0.1585083 27.9788208 C-2.90836712 31.02521321 -5.96956694 34.07729703 -9.03125 37.12890625 C-15.03612783 43.11235434 -21.04731232 49.08941663 -27.0625 55.0625 C-26.11554921 56.49867982 -25.16649 57.93346957 -24.21655273 59.36767578 C-23.68827377 60.16682404 -23.15999481 60.96597229 -22.6157074 61.78933716 C-9.13437028 81.51965433 12.9695869 93.9421078 35.9375 99.0625 C36.959646 99.29259766 36.959646 99.29259766 38.00244141 99.52734375 C62.84713385 104.93054804 88.28949285 100.75079421 109.9375 87.0625 C124.92389375 76.73353188 136.43754873 64.56693514 145.9375 49.0625 C149.41153552 50.55446533 151.65826139 52.53529606 154.31958008 55.20166016 C155.1775972 56.05660065 156.03561432 56.91154114 156.91963196 57.79238892 C157.83947372 58.7194162 158.75931549 59.64644348 159.70703125 60.6015625 C160.67067015 61.56639517 161.63468084 62.53085664 162.5990448 63.4949646 C164.62033325 65.51781615 166.63822385 67.54397684 168.65356445 69.57275391 C171.21700977 72.15308594 173.78688415 74.72689059 176.35916615 77.29841042 C178.35251352 79.29203209 180.34322562 81.28826822 182.33310509 83.2853508 C183.73393773 84.6908504 185.13621453 86.09491018 186.53852844 87.49893188 C190.97893995 91.97200049 195.27301433 96.50308962 199.38117981 101.2828064 C201.69736523 103.93142613 204.1569443 106.39369886 206.65234375 108.875 C207.40325035 109.62378418 207.40325035 109.62378418 208.16932678 110.38769531 C209.73550764 111.9483737 211.30516471 113.50549847 212.875 115.0625 C213.95140654 116.13387887 215.02758014 117.20549182 216.10351562 118.27734375 C218.71216745 120.87509638 221.32394471 123.46967962 223.9375 126.0625 C222.74085681 129.39620881 221.56493801 131.81349771 219.109375 134.3671875 C218.55636719 134.95113281 218.00335938 135.53507813 217.43359375 136.13671875 C216.85738281 136.73097656 216.28117187 137.32523438 215.6875 137.9375 C214.55593034 139.12109585 213.42571752 140.30599039 212.296875 141.4921875 C211.7387915 142.07734131 211.18070801 142.66249512 210.60571289 143.26538086 C208.92782081 145.07292712 207.32340324 146.92598971 205.73046875 148.80859375 C202.45149179 152.67344912 198.84334933 155.83804495 194.9375 159.0625 C194.41510742 159.49723633 193.89271484 159.93197266 193.35449219 160.37988281 C172.08530326 178.01453918 149.15898274 191.14119215 122.9375 200.0625 C122.20611816 200.31225586 121.47473633 200.56201172 120.72119141 200.81933594 C68.77364996 218.17128284 10.56508273 212.17324566 -38.1875 188.25 C-62.83079939 175.7738811 -88.2827815 158.40050025 -105.0625 136.0625 C-105.0625 135.4025 -105.0625 134.7425 -105.0625 134.0625 C-111.11347212 139.1931781 -116.76069877 144.64094577 -122.33984375 150.27734375 C-123.6177755 151.56095543 -123.6177755 151.56095543 -124.92152405 152.87049866 C-127.61680293 155.57790568 -130.30879126 158.28854754 -133 161 C-136.56879049 164.59527034 -140.14080384 168.1872927 -143.71484375 171.77734375 C-144.94907326 173.02402077 -144.94907326 173.02402077 -146.20823669 174.29588318 C-146.96314896 175.05409866 -147.71806122 175.81231415 -148.49584961 176.59350586 C-149.49557045 177.60108192 -149.49557045 177.60108192 -150.51548767 178.62901306 C-152.0625 180.0625 -152.0625 180.0625 -153.0625 180.0625 C-153.0625 120.9925 -153.0625 61.9225 -153.0625 1.0625 C-36.94474432 -0.04602273 -36.94474432 -0.04602273 0 0 Z " fill="#AAAAAB" transform="translate(199.0625,255.9375)"/>
<path d="M0 0 C59.07 0 118.14 0 179 0 C179 59.07 179 118.14 179 179 C174.76539185 175.37033587 170.79529686 171.91940335 166.89086914 168.00439453 C166.43142914 167.54510056 165.97198914 167.08580658 165.49862671 166.6125946 C164.00841502 165.1216965 162.52175872 163.62730865 161.03515625 162.1328125 C159.99162921 161.08741675 158.94787848 160.04224425 157.90391541 158.99728394 C155.17769255 156.2672716 152.45448819 153.53426807 149.73193359 150.80059814 C146.94487541 148.00324846 144.15492854 145.20878299 141.36523438 142.4140625 C135.90734919 136.94550306 130.45265441 131.47377555 125 126 C123.55562953 126.95416053 122.11240953 127.91006275 120.66967773 128.86669922 C119.86586166 129.39883026 119.06204559 129.9309613 118.23387146 130.47921753 C97.24975699 144.76485304 85.27707698 167.77341931 80 192 C79.01 197.94 78.02 203.88 77 210 C41.69 210 6.38 210 -30 210 C-30 186.74143669 -30 186.74143669 -28.8125 179.5 C-28.6794043 178.64092041 -28.54630859 177.78184082 -28.40917969 176.89672852 C-21.45145225 134.27481092 -2.1898178 94.93832568 28 64 C28.59200195 63.39285156 29.18400391 62.78570312 29.79394531 62.16015625 C31.68922136 60.2249694 33.59206586 58.29770525 35.5 56.375 C36.09989746 55.77026855 36.69979492 55.16553711 37.31787109 54.54248047 C37.88328613 53.97932129 38.44870117 53.41616211 39.03125 52.8359375 C39.53205078 52.33626465 40.03285156 51.8365918 40.54882812 51.32177734 C42 50 42 50 45 48 C43.50579408 44.51083577 41.51265384 42.27508744 38.82568359 39.61450195 C37.96494232 38.75713943 37.10420105 37.89977692 36.21737671 37.01643372 C35.28712677 36.0996434 34.35687683 35.18285309 33.3984375 34.23828125 C32.43671754 33.28283407 31.47551249 32.32686833 30.51480103 31.3704071 C27.99059193 28.85947529 25.46086758 26.35418097 22.92950439 23.85046387 C18.86941139 19.83357182 14.81611586 15.80984734 10.76594925 11.78294945 C9.34790319 10.37516039 7.92633018 8.97092689 6.50473022 7.56672668 C5.2230748 6.29486763 5.2230748 6.29486763 3.91552734 4.99731445 C3.15766937 4.2477095 2.3998114 3.49810455 1.61898804 2.7257843 C0 1 0 1 0 0 Z " fill="#4285F3" transform="translate(76,47)"/>
</svg>
